<svg width="59" height="74" viewBox="0 0 59 74" fill="none" xmlns="http://www.w3.org/2000/svg">
<path d="M10.8742 47.8627C9.15419 47.3379 6.53038 47.2796 4.11064 47.2796C3.23604 47.2796 2.39059 47.2796 1.60344 47.2796H0.874604V67.7454H3.46926C4.22725 67.7454 4.98524 67.7745 5.71408 67.7745C6.44292 67.7745 7.5216 67.8037 8.13382 67.7454C13.6438 67.2206 17.3172 62.9059 17.3172 57.6291C17.3172 53.1395 14.5476 48.9705 10.8742 47.8627ZM9.53319 49.4953C12.8275 50.3699 15.3056 53.8392 15.3056 57.5708C15.3056 61.9438 11.7197 65.7046 7.57991 65.7046H2.9445L3.00281 49.1746C3.11942 49.1746 3.20688 49.1746 3.3235 49.1746H5.85985H6.03477C6.88022 49.1746 8.30874 49.1746 9.53319 49.4953ZM38.0558 67.7454C34.5282 61.0401 31.1172 54.2473 27.7063 47.4837C24.2662 54.2473 20.8552 60.9818 17.4443 67.7454H19.9515C20.6511 66.2294 21.3217 64.83 21.9922 63.489H33.4204L35.4903 67.7454H38.0558ZM27.7063 61.3024C26.2195 61.3024 24.7618 61.2733 23.275 61.2733H23.0709C24.0913 59.1159 25.1116 56.9586 25.7238 55.7341C26.6276 53.8683 27.0649 52.7022 27.7063 51.8567C29.0473 54.5097 30.4759 57.425 32.3417 61.2733H32.1376C30.6508 61.2733 29.1931 61.3024 27.7063 61.3024ZM48.0299 47.3379C42.4907 47.3379 37.9428 51.8859 37.9428 57.4833C37.9428 63.0517 42.4907 67.5996 48.0591 67.5996C53.5982 67.5996 58.117 63.0517 58.117 57.4833C58.117 51.8859 53.5982 47.3379 48.0299 47.3379ZM48.0299 65.7046C43.5403 65.7046 39.8961 62.0313 39.8961 57.4542C39.8961 52.9062 43.5403 49.2621 48.0591 49.2621C52.5778 49.2621 56.1637 52.8771 56.1637 57.425C56.1637 62.0021 52.5195 65.7046 48.0299 65.7046Z" fill="white"/>
<path d="M19.3308 0.924316L25.2651 17.5338C27.0144 13.5395 28.4526 10.1453 29.6058 7.34483C30.759 4.54432 31.4003 3.04083 31.4392 2.91177L30.733 0.924316H33.5707L45.394 33.898H42.5823L31.6854 3.56995C31.4198 4.27331 30.7136 5.97039 29.5799 8.66119C28.4461 11.352 27.1051 14.5526 25.5308 18.2177L31.1542 33.898H28.323L23.9565 21.7022L20.4581 29.3165C20.4581 29.3617 20.4127 29.3875 20.3933 29.4262C20.3738 29.4649 20.3026 29.6521 20.2378 29.7811C19.8893 30.6963 19.3559 31.5305 18.6705 32.232C17.9852 32.9335 17.1625 33.4874 16.2535 33.8593C14.6402 34.5014 12.8392 34.4921 11.2326 33.8335C10.4092 33.503 9.66439 33.0045 9.04621 32.3699C8.42804 31.7352 7.9502 30.9787 7.64349 30.1489C7.21254 28.9705 7.09863 27.7003 7.31309 26.4644C7.49727 25.1229 7.88615 23.8173 8.46627 22.5927L17.2058 2.86015L16.4932 0.924316H19.3308ZM8.85498 22.8637C7.72697 25.0544 7.45904 27.585 8.10347 29.9618C8.39147 30.7266 8.83549 31.4236 9.40752 32.0089C9.97954 32.5942 10.6672 33.0551 11.427 33.3624C12.9089 33.9807 14.5735 34.0038 16.0721 33.4269C17.6658 32.8333 18.9097 31.5556 19.7973 29.5553C19.862 29.4198 19.9074 29.2907 19.9722 29.1552L23.7168 21.0183L17.4455 3.56995L8.85498 22.8637Z" fill="white"/>
<path d="M7.38782 40.229H45.5724" stroke="white" stroke-miterlimit="10"/>
</svg>
